<mxfile host="app.diagrams.net" modified="2023-10-03T00:57:51.908Z" agent="Mozilla/5.0 (Windows NT 10.0; Win64; x64) AppleWebKit/537.36 (KHTML, like Gecko) Chrome/117.0.0.0 Safari/537.36" etag="EryeHGoNpUf1hvCpuM9o" version="22.0.1" type="device">
  <diagram name="PÃ¡gina-1" id="j-Z_3NKKczU4cRSOl0Ry">
    <mxGraphModel dx="1050" dy="534" grid="1" gridSize="10" guides="1" tooltips="1" connect="1" arrows="1" fold="1" page="1" pageScale="1" pageWidth="827" pageHeight="1169" math="0" shadow="0">
      <root>
        <mxCell id="0" />
        <mxCell id="1" parent="0" />
        <mxCell id="qVh6hp1_rnJKI_HAVuxV-5" value="PerfilAdm" style="swimlane;fontStyle=1;align=center;verticalAlign=top;childLayout=stackLayout;horizontal=1;startSize=26;horizontalStack=0;resizeParent=1;resizeParentMax=0;resizeLast=0;collapsible=1;marginBottom=0;whiteSpace=wrap;html=1;" vertex="1" parent="1">
          <mxGeometry x="110" y="499" width="160" height="90" as="geometry" />
        </mxCell>
        <mxCell id="qVh6hp1_rnJKI_HAVuxV-7" value="" style="line;strokeWidth=1;fillColor=none;align=left;verticalAlign=middle;spacingTop=-1;spacingLeft=3;spacingRight=3;rotatable=0;labelPosition=right;points=[];portConstraint=eastwest;strokeColor=inherit;" vertex="1" parent="qVh6hp1_rnJKI_HAVuxV-5">
          <mxGeometry y="26" width="160" height="8" as="geometry" />
        </mxCell>
        <mxCell id="qVh6hp1_rnJKI_HAVuxV-8" value="+ cadastrarPerfil(): type&lt;br style=&quot;border-color: var(--border-color);&quot;&gt;+ editarPerfil(): type&lt;br style=&quot;border-color: var(--border-color);&quot;&gt;+ editarPerfil(): type" style="text;strokeColor=none;fillColor=none;align=left;verticalAlign=top;spacingLeft=4;spacingRight=4;overflow=hidden;rotatable=0;points=[[0,0.5],[1,0.5]];portConstraint=eastwest;whiteSpace=wrap;html=1;" vertex="1" parent="qVh6hp1_rnJKI_HAVuxV-5">
          <mxGeometry y="34" width="160" height="56" as="geometry" />
        </mxCell>
        <mxCell id="qVh6hp1_rnJKI_HAVuxV-9" value="PerfilDev" style="swimlane;fontStyle=1;align=center;verticalAlign=top;childLayout=stackLayout;horizontal=1;startSize=26;horizontalStack=0;resizeParent=1;resizeParentMax=0;resizeLast=0;collapsible=1;marginBottom=0;whiteSpace=wrap;html=1;" vertex="1" parent="1">
          <mxGeometry x="334" y="499" width="160" height="60" as="geometry" />
        </mxCell>
        <mxCell id="qVh6hp1_rnJKI_HAVuxV-11" value="" style="line;strokeWidth=1;fillColor=none;align=left;verticalAlign=middle;spacingTop=-1;spacingLeft=3;spacingRight=3;rotatable=0;labelPosition=right;points=[];portConstraint=eastwest;strokeColor=inherit;" vertex="1" parent="qVh6hp1_rnJKI_HAVuxV-9">
          <mxGeometry y="26" width="160" height="8" as="geometry" />
        </mxCell>
        <mxCell id="qVh6hp1_rnJKI_HAVuxV-12" value="+ method(type): type" style="text;strokeColor=none;fillColor=none;align=left;verticalAlign=top;spacingLeft=4;spacingRight=4;overflow=hidden;rotatable=0;points=[[0,0.5],[1,0.5]];portConstraint=eastwest;whiteSpace=wrap;html=1;" vertex="1" parent="qVh6hp1_rnJKI_HAVuxV-9">
          <mxGeometry y="34" width="160" height="26" as="geometry" />
        </mxCell>
        <mxCell id="qVh6hp1_rnJKI_HAVuxV-13" value="PerfilGestor" style="swimlane;fontStyle=1;align=center;verticalAlign=top;childLayout=stackLayout;horizontal=1;startSize=26;horizontalStack=0;resizeParent=1;resizeParentMax=0;resizeLast=0;collapsible=1;marginBottom=0;whiteSpace=wrap;html=1;" vertex="1" parent="1">
          <mxGeometry x="560" y="499" width="160" height="60" as="geometry" />
        </mxCell>
        <mxCell id="qVh6hp1_rnJKI_HAVuxV-15" value="" style="line;strokeWidth=1;fillColor=none;align=left;verticalAlign=middle;spacingTop=-1;spacingLeft=3;spacingRight=3;rotatable=0;labelPosition=right;points=[];portConstraint=eastwest;strokeColor=inherit;" vertex="1" parent="qVh6hp1_rnJKI_HAVuxV-13">
          <mxGeometry y="26" width="160" height="8" as="geometry" />
        </mxCell>
        <mxCell id="qVh6hp1_rnJKI_HAVuxV-16" value="+ method(type): type" style="text;strokeColor=none;fillColor=none;align=left;verticalAlign=top;spacingLeft=4;spacingRight=4;overflow=hidden;rotatable=0;points=[[0,0.5],[1,0.5]];portConstraint=eastwest;whiteSpace=wrap;html=1;" vertex="1" parent="qVh6hp1_rnJKI_HAVuxV-13">
          <mxGeometry y="34" width="160" height="26" as="geometry" />
        </mxCell>
        <mxCell id="qVh6hp1_rnJKI_HAVuxV-18" value="&lt;i style=&quot;font-weight: normal;&quot;&gt;Perfil&lt;/i&gt;" style="swimlane;fontStyle=1;align=center;verticalAlign=top;childLayout=stackLayout;horizontal=1;startSize=26;horizontalStack=0;resizeParent=1;resizeParentMax=0;resizeLast=0;collapsible=1;marginBottom=0;whiteSpace=wrap;html=1;" vertex="1" parent="1">
          <mxGeometry x="334" y="230" width="160" height="200" as="geometry" />
        </mxCell>
        <mxCell id="qVh6hp1_rnJKI_HAVuxV-19" value="+ nome: string&lt;br style=&quot;border-color: var(--border-color);&quot;&gt;+ cpf: int&lt;br style=&quot;border-color: var(--border-color);&quot;&gt;+ dataNascimento: DateTime&lt;br style=&quot;border-color: var(--border-color);&quot;&gt;+ perfil: string&lt;br style=&quot;border-color: var(--border-color);&quot;&gt;+ cargo: string&lt;br style=&quot;border-color: var(--border-color);&quot;&gt;+ numeroUsuario: int&lt;br style=&quot;border-color: var(--border-color);&quot;&gt;+ email: string" style="text;strokeColor=none;fillColor=none;align=left;verticalAlign=top;spacingLeft=4;spacingRight=4;overflow=hidden;rotatable=0;points=[[0,0.5],[1,0.5]];portConstraint=eastwest;whiteSpace=wrap;html=1;" vertex="1" parent="qVh6hp1_rnJKI_HAVuxV-18">
          <mxGeometry y="26" width="160" height="134" as="geometry" />
        </mxCell>
        <mxCell id="qVh6hp1_rnJKI_HAVuxV-20" value="" style="line;strokeWidth=1;fillColor=none;align=left;verticalAlign=middle;spacingTop=-1;spacingLeft=3;spacingRight=3;rotatable=0;labelPosition=right;points=[];portConstraint=eastwest;strokeColor=inherit;" vertex="1" parent="qVh6hp1_rnJKI_HAVuxV-18">
          <mxGeometry y="160" width="160" height="8" as="geometry" />
        </mxCell>
        <mxCell id="qVh6hp1_rnJKI_HAVuxV-21" value="+ method(type): type" style="text;strokeColor=none;fillColor=none;align=left;verticalAlign=top;spacingLeft=4;spacingRight=4;overflow=hidden;rotatable=0;points=[[0,0.5],[1,0.5]];portConstraint=eastwest;whiteSpace=wrap;html=1;" vertex="1" parent="qVh6hp1_rnJKI_HAVuxV-18">
          <mxGeometry y="168" width="160" height="32" as="geometry" />
        </mxCell>
      </root>
    </mxGraphModel>
  </diagram>
</mxfile>
